<svg width="34" height="15" viewBox="0 0 34 15" fill="none" xmlns="http://www.w3.org/2000/svg">
<path d="M32.0064 0.296584L1.69409 0.296584C1.38719 0.297121 1.08637 0.344355 0.823997 0.433199C0.56163 0.522043 0.347649 0.649133 0.20509 0.800791C0.0625305 0.952449 -0.00320435 1.12293 0.0149536 1.29389C0.0331116 1.46485 0.13448 1.6298 0.308144 1.771L15.4643 13.9873C16.0924 14.4938 17.6047 14.4938 18.2345 13.9873L33.3907 1.771C33.5661 1.6301 33.669 1.46506 33.6881 1.29382C33.7073 1.12258 33.642 0.951682 33.4993 0.799703C33.3566 0.647723 33.142 0.520469 32.8788 0.431769C32.6156 0.343069 32.3139 0.296314 32.0064 0.296584Z" fill="#09834A"/>
</svg>
