<svg width="1439" height="542" viewBox="0 0 1439 542" fill="none" xmlns="http://www.w3.org/2000/svg">
<g clip-path="url(#clip0_2443_391)">
<path d="M1440 0H0V542H1440V0Z" fill="white"/>
<path d="M0 369.764L15 369.523C30 369.402 60 368.921 90 347.722C120 326.404 150 284.248 180 270.999C210 257.75 240 273.408 270 261.123C300 248.958 330 208.73 360 211.138C390 213.547 420 258.594 450 261.725C480 264.977 510 226.435 540 204.996C570 183.436 600 179.1 630 194.156C660 209.211 690 243.658 720 271.24C750 298.702 780 319.177 810 330.017C840 340.857 870 342.062 900 338.448C930 334.835 960 326.404 990 300.87C1020 275.456 1050 232.818 1080 236.914C1110 240.888 1140 291.475 1170 295.45C1200 299.545 1230 256.907 1260 245.947C1290 234.866 1320 255.342 1350 268.229C1380 280.996 1410 286.296 1425 288.825L1440 291.475V543.204H1425C1410 543.204 1380 543.204 1350 543.204C1320 543.204 1290 543.204 1260 543.204C1230 543.204 1200 543.204 1170 543.204C1140 543.204 1110 543.204 1080 543.204C1050 543.204 1020 543.204 990 543.204C960 543.204 930 543.204 900 543.204C870 543.204 840 543.204 810 543.204C780 543.204 750 543.204 720 543.204C690 543.204 660 543.204 630 543.204C600 543.204 570 543.204 540 543.204C510 543.204 480 543.204 450 543.204C420 543.204 390 543.204 360 543.204C330 543.204 300 543.204 270 543.204C240 543.204 210 543.204 180 543.204C150 543.204 120 543.204 90 543.204C60 543.204 30 543.204 15 543.204H0V369.764Z" fill="#09834A"/>
</g>
<defs>
<clipPath id="clip0_2443_391">
<rect width="1440" height="542" fill="white"/>
</clipPath>
</defs>
</svg>
