<svg width="29" height="29" viewBox="0 0 29 29" fill="none" xmlns="http://www.w3.org/2000/svg">
<path fill-rule="evenodd" clip-rule="evenodd" d="M14.7388 28.7355C16.579 28.7355 18.4011 28.3731 20.1011 27.6689C21.8012 26.9647 23.3459 25.9325 24.647 24.6314C25.9482 23.3302 26.9803 21.7855 27.6845 20.0855C28.3887 18.3854 28.7511 16.5633 28.7511 14.7232C28.7511 12.8831 28.3887 11.061 27.6845 9.36095C26.9803 7.6609 25.9482 6.1162 24.647 4.81504C23.3459 3.51388 21.8012 2.48174 20.1011 1.77756C18.4011 1.07338 16.579 0.710937 14.7388 0.710938C11.0226 0.710938 7.45847 2.18723 4.83066 4.81504C2.20285 7.44285 0.726563 11.0069 0.726562 14.7232C0.726562 18.4395 2.20285 22.0036 4.83066 24.6314C7.45847 27.2592 11.0226 28.7355 14.7388 28.7355ZM14.3776 20.3904L22.1622 11.0489L19.7708 9.05603L13.076 17.0882L9.6119 13.6225L7.41042 15.824L12.0812 20.4947L13.2862 21.6998L14.3776 20.3904Z" fill="#09834A"/>
</svg>
