<svg width="75" height="75" viewBox="0 0 75 75" fill="none" xmlns="http://www.w3.org/2000/svg">
<circle cx="37.5" cy="37.5" r="37.5" fill="white"/>
<circle cx="37.5" cy="37.5" r="37" stroke="black" stroke-opacity="0.18"/>
<path d="M30.9023 21.9876C30.4454 22.4447 30.1887 23.0646 30.1887 23.7109C30.1887 24.3572 30.4454 24.9771 30.9023 25.4342L42.968 37.4998L30.9023 49.5655C30.4583 50.0252 30.2126 50.6409 30.2182 51.28C30.2237 51.9191 30.4801 52.5305 30.932 52.9824C31.384 53.4343 31.9953 53.6907 32.6344 53.6962C33.2735 53.7018 33.8892 53.4561 34.349 53.0121L48.1379 39.2232C48.5949 38.7661 48.8516 38.1462 48.8516 37.4998C48.8516 36.8535 48.5949 36.2336 48.1379 35.7765L34.349 21.9876C33.8919 21.5306 33.272 21.2739 32.6256 21.2739C31.9793 21.2739 31.3594 21.5306 30.9023 21.9876Z" fill="black" fill-opacity="0.64"/>
</svg>
