<svg width="172" height="28" viewBox="0 0 172 28" fill="none" xmlns="http://www.w3.org/2000/svg">
<path d="M5.6362 28L8.06038 17.6447L0 10.6827L10.6175 9.76667L14.7757 0L18.934 9.76472L29.5495 10.6808L21.4911 17.6428L23.9153 27.9981L14.7757 22.5017L5.6362 28Z" fill="#0FBD6C"/>
<path d="M41.3003 28L43.7244 17.6447L35.6641 10.6827L46.2816 9.76667L50.4398 0L54.598 9.76472L65.2136 10.6808L57.1551 17.6428L59.5793 27.9981L50.4398 22.5017L41.3003 28Z" fill="#0FBD6C"/>
<path d="M76.9643 28L79.3885 17.6447L71.3281 10.6827L81.9456 9.76667L86.1039 0L90.2621 9.76472L100.878 10.6808L92.8192 17.6428L95.2434 27.9981L86.1039 22.5017L76.9643 28Z" fill="#0FBD6C"/>
<path d="M112.628 28L115.053 17.6447L106.992 10.6827L117.61 9.76667L121.768 0L125.926 9.76472L136.542 10.6808L128.483 17.6428L130.907 27.9981L121.768 22.5017L112.628 28Z" fill="#0FBD6C"/>
<path d="M148.098 28L150.439 17.6447L142.656 10.6827L152.908 9.76667L156.922 0L160.937 9.76472L171.187 10.6808L163.406 17.6428L165.747 27.9981L156.922 22.5017L148.098 28Z" fill="#0FBD6C"/>
</svg>
