<svg width="142" height="25" viewBox="0 0 142 25" fill="none" xmlns="http://www.w3.org/2000/svg">
<path d="M11.6943 0.630859L14.3136 8.77089H22.7899L15.9324 13.8017L18.5518 21.9418L11.6943 16.911L4.8368 21.9418L7.45613 13.8017L0.598633 8.77089H9.07496L11.6943 0.630859Z" fill="#4CA676"/>
<path d="M40.0731 0.630859L42.6925 8.77089H51.1688L44.3113 13.8017L46.9306 21.9418L40.0731 16.911L33.2156 21.9418L35.835 13.8017L28.9775 8.77089H37.4538L40.0731 0.630859Z" fill="#4CA676"/>
<path d="M68.4511 0.630859L71.0705 8.77089H79.5468L72.6893 13.8017L75.3086 21.9418L68.4511 16.911L61.5936 21.9418L64.213 13.8017L57.3555 8.77089H65.8318L68.4511 0.630859Z" fill="#4CA676"/>
<path d="M96.83 0.630859L99.4494 8.77089H107.926L101.068 13.8017L103.687 21.9418L96.83 16.911L89.9725 21.9418L92.5919 13.8017L85.7344 8.77089H94.2107L96.83 0.630859Z" fill="#4CA676"/>
<path d="M130.253 0.630859L132.873 8.77089H141.349L134.491 13.8017L137.111 21.9418L130.253 16.911L123.396 21.9418L126.015 13.8017L119.158 8.77089H127.634L130.253 0.630859Z" fill="#4CA676"/>
</svg>
