<svg width="1920" height="75" viewBox="0 0 1920 75" fill="none" xmlns="http://www.w3.org/2000/svg">
<path d="M0 17.7632L15.2 16.7763C30.3 15.7895 60.7 13.8158 91.2 15.0987C121.7 16.4803 152.3 21.0197 182.8 28.8158C213.3 36.5132 243.7 47.3684 274.2 51.1184C304.7 54.9671 335.3 51.6118 365.8 42.6316C396.3 33.5526 426.7 18.75 457.2 20.0329C487.7 21.4145 518.3 38.7829 548.8 40.4605C579.3 42.1382 609.7 27.9276 640 29.4079C670.3 30.8882 700.7 48.0592 731.2 45.1974C761.7 42.4342 792.3 19.7368 822.8 19.2434C853.3 18.75 883.7 40.4605 914.2 42.4342C944.7 44.4079 975.3 26.6447 1005.8 22.9934C1036.3 19.4408 1066.7 29.9013 1097.2 28.8158C1127.7 27.6316 1158.3 14.8026 1188.8 10.8553C1219.3 6.90789 1249.7 11.8421 1280 18.9474C1310.3 25.9539 1340.7 35.2303 1371.2 36.7105C1401.7 38.1908 1432.3 31.875 1462.8 30.2961C1493.3 28.6184 1523.7 31.5789 1554.2 30.2961C1584.7 28.9145 1615.3 23.3882 1645.8 28.4211C1676.3 33.5526 1706.7 49.3421 1737.2 48.6513C1767.7 48.0592 1798.3 30.8882 1828.8 20.0329C1859.3 9.17763 1889.7 4.63816 1904.8 2.26974L1920 0V75H1904.8C1889.7 75 1859.3 75 1828.8 75C1798.3 75 1767.7 75 1737.2 75C1706.7 75 1676.3 75 1645.8 75C1615.3 75 1584.7 75 1554.2 75C1523.7 75 1493.3 75 1462.8 75C1432.3 75 1401.7 75 1371.2 75C1340.7 75 1310.3 75 1280 75C1249.7 75 1219.3 75 1188.8 75C1158.3 75 1127.7 75 1097.2 75C1066.7 75 1036.3 75 1005.8 75C975.3 75 944.7 75 914.2 75C883.7 75 853.3 75 822.8 75C792.3 75 761.7 75 731.2 75C700.7 75 670.3 75 640 75C609.7 75 579.3 75 548.8 75C518.3 75 487.7 75 457.2 75C426.7 75 396.3 75 365.8 75C335.3 75 304.7 75 274.2 75C243.7 75 213.3 75 182.8 75C152.3 75 121.7 75 91.2 75C60.7 75 30.3 75 15.2 75H0V17.7632Z" fill="#0FBD6C"/>
</svg>
