<svg width="1920" height="396" viewBox="0 0 1920 396" fill="none" xmlns="http://www.w3.org/2000/svg">
<rect width="1920" height="396" fill="#0C9354"/>
<path d="M0 316.632L15.2 315.263C30.3 313.895 60.7 311.158 91.2 312.937C121.7 314.853 152.3 321.147 182.8 331.958C213.3 342.632 243.7 357.684 274.2 362.884C304.7 368.221 335.3 363.568 365.8 351.116C396.3 338.526 426.7 318 457.2 319.779C487.7 321.695 518.3 345.779 548.8 348.105C579.3 350.432 609.7 330.726 640 332.779C670.3 334.832 700.7 358.642 731.2 354.674C761.7 350.842 792.3 319.368 822.8 318.684C853.3 318 883.7 348.105 914.2 350.842C944.7 353.579 975.3 328.947 1005.8 323.884C1036.3 318.958 1066.7 333.463 1097.2 331.958C1127.7 330.316 1158.3 312.526 1188.8 307.053C1219.3 301.579 1249.7 308.421 1280 318.274C1310.3 327.989 1340.7 340.853 1371.2 342.905C1401.7 344.958 1432.3 336.2 1462.8 334.011C1493.3 331.684 1523.7 335.789 1554.2 334.011C1584.7 332.095 1615.3 324.432 1645.8 331.411C1676.3 338.526 1706.7 360.421 1737.2 359.463C1767.7 358.642 1798.3 334.832 1828.8 319.779C1859.3 304.726 1889.7 298.432 1904.8 295.147L1920 292V396H1904.8C1889.7 396 1859.3 396 1828.8 396C1798.3 396 1767.7 396 1737.2 396C1706.7 396 1676.3 396 1645.8 396C1615.3 396 1584.7 396 1554.2 396C1523.7 396 1493.3 396 1462.8 396C1432.3 396 1401.7 396 1371.2 396C1340.7 396 1310.3 396 1280 396C1249.7 396 1219.3 396 1188.8 396C1158.3 396 1127.7 396 1097.2 396C1066.7 396 1036.3 396 1005.8 396C975.3 396 944.7 396 914.2 396C883.7 396 853.3 396 822.8 396C792.3 396 761.7 396 731.2 396C700.7 396 670.3 396 640 396C609.7 396 579.3 396 548.8 396C518.3 396 487.7 396 457.2 396C426.7 396 396.3 396 365.8 396C335.3 396 304.7 396 274.2 396C243.7 396 213.3 396 182.8 396C152.3 396 121.7 396 91.2 396C60.7 396 30.3 396 15.2 396H0V316.632Z" fill="#0FBD6C"/>
</svg>
