<svg width="36" height="44" viewBox="0 0 36 44" fill="none" xmlns="http://www.w3.org/2000/svg">
<path d="M36 11V38.5C36 39.2591 35.8558 39.9681 35.5673 40.627C35.2788 41.2858 34.8822 41.8659 34.3774 42.3672C33.8726 42.8685 33.2813 43.2624 32.6034 43.5488C31.9255 43.8353 31.2115 43.9857 30.4615 44H5.53846C4.77404 44 4.0601 43.8568 3.39663 43.5703C2.73317 43.2839 2.14904 42.89 1.64423 42.3887C1.13942 41.8874 0.742788 41.3073 0.454327 40.6484C0.165865 39.9896 0.0144231 39.2734 0 38.5V11H5.53846V8.25C5.53846 7.11849 5.75481 6.05143 6.1875 5.04883C6.62019 4.04622 7.21875 3.17253 7.98317 2.42773C8.7476 1.68294 9.6274 1.0957 10.6226 0.666016C11.6178 0.236328 12.6923 0.0143229 13.8462 0C15.3462 0 16.738 0.372396 18.0216 1.11719C19.3053 0.372396 20.6827 0 22.1538 0C23.2933 0 24.3678 0.214844 25.3774 0.644531C26.387 1.07422 27.2668 1.66862 28.0168 2.42773C28.7668 3.18685 29.3582 4.06055 29.7909 5.04883C30.2236 6.03711 30.4471 7.10417 30.4615 8.25V11H36ZM27.6923 8.25C27.6923 7.50521 27.5481 6.79622 27.2596 6.12305C26.9712 5.44987 26.5745 4.86979 26.0697 4.38281C25.5649 3.89583 24.9736 3.50195 24.2957 3.20117C23.6178 2.90039 22.9038 2.75 22.1538 2.75C21.5048 2.75 20.8918 2.85742 20.3149 3.07227C20.7332 3.58789 21.0649 4.09635 21.3101 4.59766C21.5553 5.09896 21.7356 5.60026 21.851 6.10156C21.9663 6.60286 22.0457 7.11133 22.0889 7.62695C22.1322 8.14258 22.1538 8.69401 22.1538 9.28125V11H27.6923V8.25ZM8.30769 11H19.3846V8.25C19.3846 7.50521 19.2404 6.79622 18.9519 6.12305C18.6635 5.44987 18.2668 4.86979 17.762 4.38281C17.2572 3.89583 16.6659 3.50195 15.988 3.20117C15.3101 2.90039 14.5962 2.75 13.8462 2.75C13.0817 2.75 12.3678 2.89323 11.7043 3.17969C11.0409 3.46615 10.4567 3.86003 9.95192 4.36133C9.44712 4.86263 9.05048 5.44987 8.76202 6.12305C8.47356 6.79622 8.32212 7.50521 8.30769 8.25V11ZM25.6587 41.25C25.1683 40.3906 24.9231 39.474 24.9231 38.5V13.75H2.76923V38.5C2.76923 38.8867 2.84135 39.2448 2.98558 39.5742C3.12981 39.9036 3.32452 40.1901 3.56971 40.4336C3.8149 40.6771 4.11058 40.8776 4.45673 41.0352C4.80288 41.1927 5.16346 41.2643 5.53846 41.25H25.6587ZM33.2308 13.75H27.6923V38.5C27.6923 38.8867 27.7644 39.2448 27.9087 39.5742C28.0529 39.9036 28.2476 40.1901 28.4928 40.4336C28.738 40.6771 29.0337 40.8776 29.3798 41.0352C29.726 41.1927 30.0865 41.2643 30.4615 41.25C30.851 41.25 31.2115 41.1784 31.5433 41.0352C31.875 40.8919 32.1635 40.6986 32.4087 40.4551C32.6538 40.2116 32.8558 39.918 33.0144 39.5742C33.1731 39.2305 33.2452 38.8724 33.2308 38.5V13.75Z" fill="black"/>
</svg>
