<svg width="1920" height="80" viewBox="0 0 1920 80" fill="none" xmlns="http://www.w3.org/2000/svg">
<g clip-path="url(#clip0_4182_945)">
<path d="M0 29L15.2 28C30.3 27 60.7 25 91.2 26.3C121.7 27.7 152.3 32.3 182.8 40.2C213.3 48 243.7 59 274.2 62.8C304.7 66.7 335.3 63.3 365.8 54.2C396.3 45 426.7 30 457.2 31.3C487.7 32.7 518.3 50.3 548.8 52C579.3 53.7 609.7 39.3 640 40.8C670.3 42.3 700.7 59.7 731.2 56.8C761.7 54 792.3 31 822.8 30.5C853.3 30 883.7 52 914.2 54C944.7 56 975.3 38 1005.8 34.3C1036.3 30.7 1066.7 41.3 1097.2 40.2C1127.7 39 1158.3 26 1188.8 22C1219.3 18 1249.7 23 1280 30.2C1310.3 37.3 1340.7 46.7 1371.2 48.2C1401.7 49.7 1432.3 43.3 1462.8 41.7C1493.3 40 1523.7 43 1554.2 41.7C1584.7 40.3 1615.3 34.7 1645.8 39.8C1676.3 45 1706.7 61 1737.2 60.3C1767.7 59.7 1798.3 42.3 1828.8 31.3C1859.3 20.3 1889.7 15.7 1904.8 13.3L1920 11V87H1904.8C1889.7 87 1859.3 87 1828.8 87C1798.3 87 1767.7 87 1737.2 87C1706.7 87 1676.3 87 1645.8 87C1615.3 87 1584.7 87 1554.2 87C1523.7 87 1493.3 87 1462.8 87C1432.3 87 1401.7 87 1371.2 87C1340.7 87 1310.3 87 1280 87C1249.7 87 1219.3 87 1188.8 87C1158.3 87 1127.7 87 1097.2 87C1066.7 87 1036.3 87 1005.8 87C975.3 87 944.7 87 914.2 87C883.7 87 853.3 87 822.8 87C792.3 87 761.7 87 731.2 87C700.7 87 670.3 87 640 87C609.7 87 579.3 87 548.8 87C518.3 87 487.7 87 457.2 87C426.7 87 396.3 87 365.8 87C335.3 87 304.7 87 274.2 87C243.7 87 213.3 87 182.8 87C152.3 87 121.7 87 91.2 87C60.7 87 30.3 87 15.2 87H0V29Z" fill="#4CA676"/>
</g>
<defs>
<clipPath id="clip0_4182_945">
<rect width="1920" height="80" fill="white"/>
</clipPath>
</defs>
</svg>
